<svg width="31" height="31" viewBox="0 0 31 31" fill="none" xmlns="http://www.w3.org/2000/svg">
<path d="M8.62839 2.51179L6.40522 0.238462C2.67402 3.14769 0.217653 7.63077 0 12.7179H3.10933C3.21946 10.7019 3.7729 8.73713 4.72846 6.97005C5.68402 5.20297 7.01708 3.67907 8.62839 2.51179ZM27.8907 12.7179H31C30.7668 7.63077 28.3104 3.14769 24.5948 0.238462L22.3872 2.51179C23.9916 3.68482 25.3187 5.2104 26.271 6.97653C27.2234 8.74266 27.7768 10.7045 27.8907 12.7179ZM24.828 13.5128C24.828 8.63231 22.2783 4.54667 17.832 3.46564V2.38462C17.832 1.06513 16.7904 0 15.5 0C14.2096 0 13.168 1.06513 13.168 2.38462V3.46564C8.70612 4.54667 6.17202 8.61641 6.17202 13.5128V21.4615L3.06269 24.641V26.2308H27.9373V24.641L24.828 21.4615V13.5128ZM15.5 31C15.7177 31 15.9198 30.9841 16.1219 30.9364C17.1324 30.7138 17.9564 30.0144 18.3606 29.0605C18.5161 28.679 18.5938 28.2656 18.5938 27.8205H12.3751C12.3907 29.5692 13.7743 31 15.5 31Z" fill="#201D1D"/>
</svg>
