<svg width="62" height="62" viewBox="0 0 62 62" fill="none" xmlns="http://www.w3.org/2000/svg">
<path d="M30.8999 61.7998C47.9654 61.7998 61.7998 47.9654 61.7998 30.8999C61.7998 13.8344 47.9654 0 30.8999 0C13.8344 0 0 13.8344 0 30.8999C0 47.9654 13.8344 61.7998 30.8999 61.7998Z" fill="#3DBC93"/>
<path fill-rule="evenodd" clip-rule="evenodd" d="M23.255 38.68L39.162 38.801V51.719L23.255 51.598V38.68Z" fill="#F9DCA4"/>
<path opacity="0.11" fill-rule="evenodd" clip-rule="evenodd" d="M39.165 38.778V42.358C39.1623 42.7533 39.1296 43.1477 39.067 43.538C38.9883 44.0196 38.8558 44.4909 38.672 44.943C33.298 49.107 24.733 45.691 23.366 38.578L39.165 38.778Z" fill="black"/>
<path fill-rule="evenodd" clip-rule="evenodd" d="M31.129 8.432C52.41 8.432 44.116 43.698 31.129 43.698C18.863 43.698 9.848 8.432 31.129 8.432Z" fill="#FFE8BE"/>
<path fill-rule="evenodd" clip-rule="evenodd" d="M18.365 24.046C15.295 25.385 17.905 31.732 19.837 31.704C19.0356 29.2206 18.5413 26.6495 18.365 24.046Z" fill="#F9DCA4"/>
<path fill-rule="evenodd" clip-rule="evenodd" d="M44.135 24.046C47.205 25.385 44.6 31.732 42.669 31.703C43.4681 29.22 43.9605 26.6486 44.135 24.046Z" fill="#F9DCA4"/>
<path fill-rule="evenodd" clip-rule="evenodd" d="M44.123 24.17C44.123 24.17 52.083 12.385 41.487 7.836C40.1604 5.72591 38.2038 4.08646 35.8942 3.14966C33.5845 2.21286 31.0386 2.02617 28.617 2.616C22.775 3.805 20.604 6.7 20.604 6.7C20.604 6.7 15.074 11.714 10.164 11.817C11.9943 13.1047 14.2111 13.7252 16.444 13.575C15.772 15.255 14.479 20.785 18.433 24.429C22.801 21.561 26.445 15.952 26.445 15.952C26.445 15.952 27.427 19.209 26.652 20.812C29.5309 20.2657 32.2432 19.0568 34.574 17.281C37.116 15.245 38.467 12.984 39.884 12.955C43.14 12.886 44.097 22.695 44.124 24.171L44.123 24.17Z" fill="#ECBE6A"/>
<path fill-rule="evenodd" clip-rule="evenodd" d="M53.456 52.022C50.573 55.1201 47.0817 57.5901 43.2006 59.2776C39.3195 60.965 35.1321 61.8336 30.9 61.829C29.6187 61.8289 28.3386 61.7497 27.067 61.592C23.1673 61.0323 19.3946 59.7993 15.917 57.948C12.9805 56.3122 10.3296 54.2097 8.06799 51.723L9.34999 48.623L23.26 42.411C23.885 46.134 31.066 50.586 31.066 50.586C31.066 50.586 38.279 47.174 39.153 42.375L51.93 48.656L53.456 52.022Z" fill="#498BD9"/>
<mask id="mask0_6_44" style="mask-type:luminance" maskUnits="userSpaceOnUse" x="8" y="42" width="46" height="20">
<path fill-rule="evenodd" clip-rule="evenodd" d="M53.456 52.022C50.573 55.1201 47.0817 57.5901 43.2006 59.2776C39.3195 60.965 35.1321 61.8336 30.9 61.829C29.6187 61.8289 28.3386 61.7497 27.067 61.592C23.1673 61.0323 19.3946 59.7993 15.917 57.948C12.9805 56.3122 10.3296 54.2097 8.06799 51.723L9.34999 48.623L23.26 42.411C23.885 46.134 31.066 50.586 31.066 50.586C31.066 50.586 38.279 47.174 39.153 42.375L51.93 48.656L53.456 52.022Z" fill="white"/>
</mask>
<g mask="url(#mask0_6_44)">
<path fill-rule="evenodd" clip-rule="evenodd" d="M14.112 46.496L20.926 43.454L31.135 57.432L41.463 43.494L47.412 46.325V66.358H14.112V46.496Z" fill="#545F69"/>
<mask id="mask1_6_44" style="mask-type:luminance" maskUnits="userSpaceOnUse" x="14" y="43" width="34" height="24">
<path fill-rule="evenodd" clip-rule="evenodd" d="M14.112 46.496L20.926 43.454L31.135 57.432L41.463 43.494L47.412 46.325V66.358H14.112V46.496Z" fill="white"/>
</mask>
<g mask="url(#mask1_6_44)">
<path fill-rule="evenodd" clip-rule="evenodd" d="M37.79 42.881H38.522V64.263H37.79V42.881ZM23.015 42.881H23.746V64.263H23.016V42.881H23.015ZM20.034 42.881H20.765V64.263H20.034V42.881ZM17.09 42.881H17.821V64.263H17.091L17.09 42.881ZM14.109 42.881H14.84V64.263H14.109V42.881ZM34.817 42.881H35.548V64.263H34.817V42.881ZM31.836 42.881H32.567V64.263H31.836V42.881ZM28.892 42.881H29.623V64.263H28.892V42.881ZM25.911 42.881H26.642V64.263H25.911V42.881ZM46.696 42.881H47.428V64.263H46.696V42.881ZM43.716 42.881H44.446V64.263H43.716V42.881ZM40.772 42.881H41.502V64.263H40.772V42.881Z" fill="#434955"/>
</g>
</g>
<path fill-rule="evenodd" clip-rule="evenodd" d="M23.265 41.27L31.067 50.586L24.762 54.139L19.939 43.548L23.265 41.27Z" fill="#58B0E0"/>
<path fill-rule="evenodd" clip-rule="evenodd" d="M39.155 41.45L31.067 50.586L37.585 54.139L42.362 43.42L39.155 41.45Z" fill="#58B0E0"/>
<path fill-rule="evenodd" clip-rule="evenodd" d="M21.637 23.157H28.053C28.2609 23.1569 28.4667 23.1979 28.6587 23.2775C28.8507 23.3571 29.0252 23.4738 29.172 23.621V23.623C29.3189 23.7696 29.4356 23.9436 29.5152 24.1353C29.5948 24.327 29.6359 24.5325 29.636 24.74V27.633C29.6355 28.0527 29.4685 28.455 29.1718 28.7518C28.875 29.0485 28.4727 29.2155 28.053 29.216H21.637C21.4295 29.2157 21.2242 29.1744 21.0327 29.0946C20.8412 29.0148 20.6673 28.8981 20.521 28.751H20.519C20.372 28.6043 20.2553 28.43 20.1757 28.2382C20.0961 28.0464 20.0551 27.8407 20.055 27.633V24.74C20.0551 24.5325 20.0962 24.327 20.1758 24.1353C20.2554 23.9436 20.372 23.7696 20.519 23.623L20.521 23.621C20.6674 23.4741 20.8413 23.3575 21.0328 23.2779C21.2243 23.1983 21.4296 23.1572 21.637 23.157ZM28.053 24.007H21.637C21.4432 24.0074 21.2574 24.0843 21.12 24.221L21.119 24.223C20.9823 24.3604 20.9054 24.5462 20.905 24.74V27.633C20.905 27.7291 20.9241 27.8242 20.961 27.9129C20.9978 28.0017 21.0519 28.0822 21.12 28.15C21.2572 28.2871 21.443 28.3644 21.637 28.365H28.053C28.2469 28.3642 28.4326 28.2868 28.5697 28.1497C28.7068 28.0126 28.7842 27.8269 28.785 27.633V24.74C28.785 24.5458 28.708 24.3596 28.571 24.222C28.5031 24.1538 28.4223 24.0997 28.3334 24.0628C28.2445 24.0259 28.1492 24.007 28.053 24.007Z" fill="#464449"/>
<path fill-rule="evenodd" clip-rule="evenodd" d="M34.548 23.157H40.964C41.1717 23.1571 41.3774 23.1981 41.5692 23.2777C41.761 23.3573 41.9353 23.474 42.082 23.621V23.623C42.2291 23.7695 42.3459 23.9435 42.4257 24.1352C42.5055 24.3269 42.5467 24.5324 42.547 24.74V27.633C42.5465 28.0527 42.3795 28.455 42.0828 28.7518C41.786 29.0485 41.3837 29.2155 40.964 29.216H34.548C34.3404 29.2157 34.1349 29.1744 33.9432 29.0947C33.7516 29.0149 33.5775 28.8981 33.431 28.751L33.43 28.749C33.1332 28.4534 32.9659 28.0519 32.965 27.633V24.74C32.9653 24.5324 33.0066 24.3269 33.0863 24.1352C33.1661 23.9436 33.2829 23.7695 33.43 23.623L33.432 23.622C33.7276 23.3252 34.1291 23.1579 34.548 23.157ZM40.964 24.007H34.548C34.452 24.0069 34.3569 24.0258 34.2682 24.0625C34.1795 24.0992 34.0989 24.1531 34.031 24.221L34.03 24.223C33.962 24.2908 33.9081 24.3714 33.8714 24.4601C33.8347 24.5489 33.8159 24.644 33.816 24.74V27.633C33.8159 27.729 33.8348 27.8241 33.8715 27.9128C33.9082 28.0015 33.9621 28.0821 34.03 28.15L34.031 28.151C34.0989 28.2189 34.1795 28.2728 34.2682 28.3095C34.3569 28.3462 34.452 28.3651 34.548 28.365H40.964C41.1579 28.3642 41.3436 28.2868 41.4807 28.1497C41.6178 28.0126 41.6952 27.8269 41.696 27.633V24.74C41.696 24.5458 41.619 24.3596 41.482 24.222C41.4142 24.1539 41.3326 24.0999 41.2439 24.063C41.1552 24.0261 41.0601 24.0071 40.964 24.007Z" fill="#464449"/>
<path d="M29.415 24.506H33.26V25.382H29.415V24.506Z" fill="#464449"/>
</svg>
