<svg width="32" height="25" viewBox="0 0 32 25" fill="none" xmlns="http://www.w3.org/2000/svg">
<g clip-path="url(#clip0_1_3)">
<path d="M6.85714 15.9091C6.85714 15.2817 6.63393 14.7461 6.1875 14.3022C5.74107 13.8583 5.20238 13.6364 4.57143 13.6364C3.94048 13.6364 3.40179 13.8583 2.95536 14.3022C2.50893 14.7461 2.28571 15.2817 2.28571 15.9091C2.28571 16.5365 2.50893 17.0721 2.95536 17.516C3.40179 17.9599 3.94048 18.1818 4.57143 18.1818C5.20238 18.1818 5.74107 17.9599 6.1875 17.516C6.63393 17.0721 6.85714 16.5365 6.85714 15.9091ZM10.2857 7.95455C10.2857 7.32718 10.0625 6.79155 9.61607 6.34766C9.16964 5.90376 8.63095 5.68182 8 5.68182C7.36905 5.68182 6.83036 5.90376 6.38393 6.34766C5.9375 6.79155 5.71429 7.32718 5.71429 7.95455C5.71429 8.58191 5.9375 9.11754 6.38393 9.56143C6.83036 10.0053 7.36905 10.2273 8 10.2273C8.63095 10.2273 9.16964 10.0053 9.61607 9.56143C10.0625 9.11754 10.2857 8.58191 10.2857 7.95455ZM17.9286 16.495L19.7321 9.71236C19.8036 9.40459 19.7589 9.11754 19.5982 8.85121C19.4375 8.58487 19.2083 8.41027 18.9107 8.32741C18.6131 8.24455 18.3274 8.28303 18.0536 8.44283C17.7798 8.60263 17.6012 8.83641 17.5179 9.14418L15.7143 15.9268C15 15.986 14.3631 16.2435 13.8036 16.6992C13.244 17.1549 12.869 17.7379 12.6786 18.4482C12.4405 19.3596 12.5595 20.2237 13.0357 21.0405C13.5119 21.8572 14.2083 22.384 15.125 22.6207C16.0417 22.8575 16.9107 22.7391 17.7321 22.2656C18.5536 21.7921 19.0833 21.0997 19.3214 20.1882C19.5119 19.478 19.4762 18.7855 19.2143 18.1108C18.9524 17.4361 18.5238 16.8975 17.9286 16.495ZM29.7143 15.9091C29.7143 15.2817 29.4911 14.7461 29.0446 14.3022C28.5982 13.8583 28.0595 13.6364 27.4286 13.6364C26.7976 13.6364 26.2589 13.8583 25.8125 14.3022C25.3661 14.7461 25.1429 15.2817 25.1429 15.9091C25.1429 16.5365 25.3661 17.0721 25.8125 17.516C26.2589 17.9599 26.7976 18.1818 27.4286 18.1818C28.0595 18.1818 28.5982 17.9599 29.0446 17.516C29.4911 17.0721 29.7143 16.5365 29.7143 15.9091ZM18.2857 4.54545C18.2857 3.91809 18.0625 3.38246 17.6161 2.93857C17.1696 2.49467 16.631 2.27273 16 2.27273C15.369 2.27273 14.8304 2.49467 14.3839 2.93857C13.9375 3.38246 13.7143 3.91809 13.7143 4.54545C13.7143 5.17282 13.9375 5.70845 14.3839 6.15234C14.8304 6.59624 15.369 6.81818 16 6.81818C16.631 6.81818 17.1696 6.59624 17.6161 6.15234C18.0625 5.70845 18.2857 5.17282 18.2857 4.54545ZM26.2857 7.95455C26.2857 7.32718 26.0625 6.79155 25.6161 6.34766C25.1696 5.90376 24.631 5.68182 24 5.68182C23.369 5.68182 22.8304 5.90376 22.3839 6.34766C21.9375 6.79155 21.7143 7.32718 21.7143 7.95455C21.7143 8.58191 21.9375 9.11754 22.3839 9.56143C22.8304 10.0053 23.369 10.2273 24 10.2273C24.631 10.2273 25.1696 10.0053 25.6161 9.56143C26.0625 9.11754 26.2857 8.58191 26.2857 7.95455ZM32 15.9091C32 18.9986 31.1607 21.8572 29.4821 24.4851C29.256 24.8284 28.9345 25 28.5179 25H3.48214C3.06548 25 2.74405 24.8284 2.51786 24.4851C0.839286 21.8691 0 19.0104 0 15.9091C0 13.7547 0.422619 11.6951 1.26786 9.73011C2.1131 7.76515 3.25 6.07244 4.67857 4.65199C6.10714 3.23153 7.80952 2.10109 9.78571 1.26065C11.7619 0.420218 13.8333 0 16 0C18.1667 0 20.2381 0.420218 22.2143 1.26065C24.1905 2.10109 25.8929 3.23153 27.3214 4.65199C28.75 6.07244 29.8869 7.76515 30.7321 9.73011C31.5774 11.6951 32 13.7547 32 15.9091Z" fill="#201D1D"/>
</g>
<defs>
<clipPath id="clip0_1_3">
<rect width="32" height="25" fill="white"/>
</clipPath>
</defs>
</svg>
