<svg width="30" height="29" viewBox="0 0 30 29" fill="none" xmlns="http://www.w3.org/2000/svg">
<path fill-rule="evenodd" clip-rule="evenodd" d="M0.000541878 14.4997C0.000541878 6.49153 6.71592 0 15.0003 0C23.2846 0 30 6.49153 30 14.4997C30 22.5079 23.2846 28.9995 15.0003 28.9995C12.4053 29.0033 9.85414 28.3536 7.59791 27.1145L1.97451 28.9255C1.71022 29.0107 1.4266 29.0231 1.15545 28.9612C0.884302 28.8994 0.636331 28.7657 0.439332 28.5753C0.242333 28.3849 0.104091 28.1452 0.0401016 27.8831C-0.0238882 27.6209 -0.0110971 27.3468 0.0770407 27.0913L1.95201 21.6554C0.66959 19.4745 -0.00298347 17.0083 0.000541878 14.4997ZM9.00038 7.24987C8.60256 7.24987 8.22104 7.40263 7.93974 7.67456C7.65844 7.94648 7.50041 8.31529 7.50041 8.69984C7.50041 9.0844 7.65844 9.45321 7.93974 9.72513C8.22104 9.99705 8.60256 10.1498 9.00038 10.1498H21.0002C21.398 10.1498 21.7795 9.99705 22.0608 9.72513C22.3421 9.45321 22.5001 9.0844 22.5001 8.69984C22.5001 8.31529 22.3421 7.94648 22.0608 7.67456C21.7795 7.40263 21.398 7.24987 21.0002 7.24987H9.00038ZM9.00038 13.0498C8.60256 13.0498 8.22104 13.2025 7.93974 13.4745C7.65844 13.7464 7.50041 14.1152 7.50041 14.4997C7.50041 14.8843 7.65844 15.2531 7.93974 15.525C8.22104 15.7969 8.60256 15.9497 9.00038 15.9497H21.0002C21.398 15.9497 21.7795 15.7969 22.0608 15.525C22.3421 15.2531 22.5001 14.8843 22.5001 14.4997C22.5001 14.1152 22.3421 13.7464 22.0608 13.4745C21.7795 13.2025 21.398 13.0498 21.0002 13.0498H9.00038ZM9.00038 18.8497C8.60256 18.8497 8.22104 19.0024 7.93974 19.2743C7.65844 19.5463 7.50041 19.9151 7.50041 20.2996C7.50041 20.6842 7.65844 21.053 7.93974 21.3249C8.22104 21.5968 8.60256 21.7496 9.00038 21.7496H13.5003C13.8981 21.7496 14.2796 21.5968 14.5609 21.3249C14.8422 21.053 15.0003 20.6842 15.0003 20.2996C15.0003 19.9151 14.8422 19.5463 14.5609 19.2743C14.2796 19.0024 13.8981 18.8497 13.5003 18.8497H9.00038Z" fill="#201D1D"/>
</svg>
