<svg width="32" height="32" viewBox="0 0 32 32" fill="none" xmlns="http://www.w3.org/2000/svg">
<path d="M29.98 12.4029C29.4414 11.84 28.8843 11.26 28.6743 10.75C28.48 10.2829 28.4686 9.50857 28.4571 8.75857C28.4357 7.36429 28.4129 5.78429 27.3143 4.68571C26.2157 3.58714 24.6357 3.56429 23.2414 3.54286C22.4914 3.53143 21.7171 3.52 21.25 3.32571C20.7414 3.11571 20.16 2.55857 19.5971 2.02C18.6114 1.07286 17.4914 0 16 0C14.5086 0 13.39 1.07286 12.4029 2.02C11.84 2.55857 11.26 3.11571 10.75 3.32571C10.2857 3.52 9.50857 3.53143 8.75857 3.54286C7.36429 3.56429 5.78429 3.58714 4.68571 4.68571C3.58714 5.78429 3.57143 7.36429 3.54286 8.75857C3.53143 9.50857 3.52 10.2829 3.32571 10.75C3.11571 11.2586 2.55857 11.84 2.02 12.4029C1.07286 13.3886 0 14.5086 0 16C0 17.4914 1.07286 18.61 2.02 19.5971C2.55857 20.16 3.11571 20.74 3.32571 21.25C3.52 21.7171 3.53143 22.4914 3.54286 23.2414C3.56429 24.6357 3.58714 26.2157 4.68571 27.3143C5.78429 28.4129 7.36429 28.4357 8.75857 28.4571C9.50857 28.4686 10.2829 28.48 10.75 28.6743C11.2586 28.8843 11.84 29.4414 12.4029 29.98C13.3886 30.9271 14.5086 32 16 32C17.4914 32 18.61 30.9271 19.5971 29.98C20.16 29.4414 20.74 28.8843 21.25 28.6743C21.7171 28.48 22.4914 28.4686 23.2414 28.4571C24.6357 28.4357 26.2157 28.4129 27.3143 27.3143C28.4129 26.2157 28.4357 24.6357 28.4571 23.2414C28.4686 22.4914 28.48 21.7171 28.6743 21.25C28.8843 20.7414 29.4414 20.16 29.98 19.5971C30.9271 18.6114 32 17.4914 32 16C32 14.5086 30.9271 13.39 29.98 12.4029ZM16 25.1429C15.6609 25.1429 15.3295 25.0423 15.0476 24.8539C14.7657 24.6656 14.546 24.3978 14.4162 24.0846C14.2865 23.7714 14.2525 23.4267 14.3187 23.0941C14.3848 22.7616 14.5481 22.4561 14.7878 22.2164C15.0276 21.9766 15.333 21.8134 15.6656 21.7472C15.9981 21.6811 16.3428 21.715 16.656 21.8448C16.9693 21.9745 17.237 22.1943 17.4254 22.4762C17.6137 22.7581 17.7143 23.0895 17.7143 23.4286C17.7143 23.8832 17.5337 24.3193 17.2122 24.6408C16.8907 24.9622 16.4547 25.1429 16 25.1429ZM17.1429 18.1829V18.2857C17.1429 18.5888 17.0225 18.8795 16.8081 19.0938C16.5938 19.3082 16.3031 19.4286 16 19.4286C15.6969 19.4286 15.4062 19.3082 15.1919 19.0938C14.9776 18.8795 14.8571 18.5888 14.8571 18.2857V17.1429C14.8571 16.8398 14.9776 16.5491 15.1919 16.3347C15.4062 16.1204 15.6969 16 16 16C17.89 16 19.4286 14.7143 19.4286 13.1429C19.4286 11.5714 17.89 10.2857 16 10.2857C14.11 10.2857 12.5714 11.5714 12.5714 13.1429V13.7143C12.5714 14.0174 12.451 14.3081 12.2367 14.5224C12.0224 14.7367 11.7317 14.8571 11.4286 14.8571C11.1255 14.8571 10.8348 14.7367 10.6205 14.5224C10.4061 14.3081 10.2857 14.0174 10.2857 13.7143V13.1429C10.2857 10.3071 12.8486 8 16 8C19.1514 8 21.7143 10.3071 21.7143 13.1429C21.7143 15.6257 19.7486 17.7043 17.1429 18.1829Z" fill="#201D1D"/>
</svg>
