<svg width="30" height="27" viewBox="0 0 30 27" fill="none" xmlns="http://www.w3.org/2000/svg">
<path d="M3 27C2.175 27 1.4685 26.706 0.880502 26.118C0.292502 25.53 -0.000997453 24.824 2.54669e-06 24V3C2.54669e-06 2.175 0.294003 1.4685 0.882002 0.880502C1.47 0.292502 2.176 -0.000997453 3 2.54669e-06H27C27.825 2.54669e-06 28.5315 0.294003 29.1195 0.882002C29.7075 1.47 30.001 2.176 30 3V24C30 24.825 29.706 25.5315 29.118 26.1195C28.53 26.7075 27.824 27.001 27 27H3ZM7.5 21H22.5C22.925 21 23.2815 20.856 23.5695 20.568C23.8575 20.28 24.001 19.924 24 19.5C24 19.075 23.856 18.7185 23.568 18.4305C23.28 18.1425 22.924 17.999 22.5 18H7.5C7.075 18 6.7185 18.144 6.4305 18.432C6.1425 18.72 5.999 19.076 6 19.5C6 19.925 6.144 20.2815 6.432 20.5695C6.72 20.8575 7.076 21.001 7.5 21ZM7.5 15H10.5C10.925 15 11.2815 14.856 11.5695 14.568C11.8575 14.28 12.001 13.924 12 13.5V7.5C12 7.075 11.856 6.7185 11.568 6.4305C11.28 6.1425 10.924 5.999 10.5 6H7.5C7.075 6 6.7185 6.144 6.4305 6.432C6.1425 6.72 5.999 7.076 6 7.5V13.5C6 13.925 6.144 14.2815 6.432 14.5695C6.72 14.8575 7.076 15.001 7.5 15ZM16.5 15H22.5C22.925 15 23.2815 14.856 23.5695 14.568C23.8575 14.28 24.001 13.924 24 13.5C24 13.075 23.856 12.7185 23.568 12.4305C23.28 12.1425 22.924 11.999 22.5 12H16.5C16.075 12 15.7185 12.144 15.4305 12.432C15.1425 12.72 14.999 13.076 15 13.5C15 13.925 15.144 14.2815 15.432 14.5695C15.72 14.8575 16.076 15.001 16.5 15ZM16.5 9H22.5C22.925 9 23.2815 8.856 23.5695 8.568C23.8575 8.28 24.001 7.924 24 7.5C24 7.075 23.856 6.7185 23.568 6.4305C23.28 6.1425 22.924 5.999 22.5 6H16.5C16.075 6 15.7185 6.144 15.4305 6.432C15.1425 6.72 14.999 7.076 15 7.5C15 7.925 15.144 8.2815 15.432 8.5695C15.72 8.8575 16.076 9.001 16.5 9Z" fill="#201D1D"/>
</svg>
